<mxfile host="app.diagrams.net" modified="2024-06-13T10:59:56.893Z" agent="Mozilla/5.0 (Windows NT 10.0; Win64; x64) AppleWebKit/537.36 (KHTML, like Gecko) Chrome/126.0.0.0 Safari/537.36" etag="gY3yj8eAKjNdQwib2JdV" version="24.5.4" type="github">
  <diagram name="Page-1" id="19d8dcba-68ad-dc05-1034-9cf7b2a963f6">
    <mxGraphModel dx="1050" dy="522" grid="1" gridSize="10" guides="1" tooltips="1" connect="1" arrows="1" fold="1" page="1" pageScale="1" pageWidth="1100" pageHeight="850" background="none" math="0" shadow="0">
      <root>
        <mxCell id="0" />
        <mxCell id="1" parent="0" />
        <mxCell id="218ae93e1282097f-19" value="" style="whiteSpace=wrap;html=1;rounded=1;shadow=0;comic=0;strokeWidth=2;fontFamily=Verdana;align=center;fontSize=10;" parent="1" vertex="1">
          <mxGeometry x="460" y="330" width="340" height="220" as="geometry" />
        </mxCell>
        <mxCell id="218ae93e1282097f-24" value="" style="whiteSpace=wrap;html=1;rounded=1;shadow=0;comic=0;strokeWidth=2;fontFamily=Verdana;align=center;fontSize=10;" parent="1" vertex="1">
          <mxGeometry x="875.5" y="401" width="223" height="199" as="geometry" />
        </mxCell>
        <mxCell id="218ae93e1282097f-42" value="" style="edgeStyle=orthogonalEdgeStyle;rounded=1;html=1;labelBackgroundColor=none;endArrow=block;endFill=1;strokeColor=#4D4D4D;strokeWidth=2;fontFamily=Verdana;fontSize=12;fontStyle=1" parent="1" source="6257edae8c83ed4a-1" target="6257edae8c83ed4a-12" edge="1">
          <mxGeometry relative="1" as="geometry" />
        </mxCell>
        <mxCell id="218ae93e1282097f-43" value="" style="edgeStyle=orthogonalEdgeStyle;rounded=1;html=1;labelBackgroundColor=none;endArrow=block;endFill=1;strokeColor=#4D4D4D;strokeWidth=2;fontFamily=Verdana;fontSize=12;fontStyle=1" parent="1" source="6257edae8c83ed4a-1" target="6257edae8c83ed4a-9" edge="1">
          <mxGeometry relative="1" as="geometry" />
        </mxCell>
        <mxCell id="218ae93e1282097f-44" value="" style="edgeStyle=orthogonalEdgeStyle;rounded=1;html=1;labelBackgroundColor=none;endArrow=block;endFill=1;strokeColor=#4D4D4D;strokeWidth=2;fontFamily=Verdana;fontSize=12;fontStyle=1" parent="1" source="6257edae8c83ed4a-1" target="218ae93e1282097f-2" edge="1">
          <mxGeometry relative="1" as="geometry" />
        </mxCell>
        <mxCell id="218ae93e1282097f-45" value="" style="edgeStyle=elbowEdgeStyle;rounded=1;html=1;labelBackgroundColor=none;endArrow=block;endFill=1;strokeColor=#4D4D4D;strokeWidth=2;fontFamily=Verdana;fontSize=12;fontStyle=1" parent="1" source="6257edae8c83ed4a-9" edge="1">
          <mxGeometry relative="1" as="geometry">
            <mxPoint x="625.7142857142858" y="330" as="targetPoint" />
          </mxGeometry>
        </mxCell>
        <mxCell id="218ae93e1282097f-48" value="" style="edgeStyle=orthogonalEdgeStyle;rounded=1;html=1;labelBackgroundColor=none;endArrow=block;endFill=1;strokeColor=#4D4D4D;strokeWidth=2;fontFamily=Verdana;fontSize=12;fontStyle=1" parent="1" source="218ae93e1282097f-2" edge="1">
          <mxGeometry relative="1" as="geometry">
            <mxPoint x="1347" y="330" as="targetPoint" />
          </mxGeometry>
        </mxCell>
        <mxCell id="218ae93e1282097f-51" value="" style="edgeStyle=elbowEdgeStyle;rounded=1;html=1;labelBackgroundColor=none;endArrow=block;endFill=1;strokeColor=#4D4D4D;strokeWidth=2;fontFamily=Verdana;fontSize=10;" parent="1" source="6257edae8c83ed4a-12" target="218ae93e1282097f-24" edge="1">
          <mxGeometry relative="1" as="geometry" />
        </mxCell>
        <mxCell id="218ae93e1282097f-61" value="Eddie Moualek" style="text;html=1;strokeColor=none;fillColor=none;align=center;verticalAlign=middle;whiteSpace=wrap;rounded=1;shadow=0;comic=0;fontFamily=Verdana;fontSize=10;" parent="1" vertex="1">
          <mxGeometry x="485" y="410" width="90" height="25" as="geometry" />
        </mxCell>
        <mxCell id="218ae93e1282097f-62" value="Lucas Lasanta" style="text;html=1;strokeColor=none;fillColor=none;align=center;verticalAlign=middle;whiteSpace=wrap;rounded=1;shadow=0;comic=0;fontFamily=Verdana;fontSize=10;" parent="1" vertex="1">
          <mxGeometry x="585" y="410" width="90" height="25" as="geometry" />
        </mxCell>
        <mxCell id="218ae93e1282097f-63" value="Justin Lam" style="text;html=1;strokeColor=none;fillColor=none;align=center;verticalAlign=middle;whiteSpace=wrap;rounded=1;shadow=0;comic=0;fontFamily=Verdana;fontSize=10;" parent="1" vertex="1">
          <mxGeometry x="685" y="410" width="90" height="25" as="geometry" />
        </mxCell>
        <mxCell id="218ae93e1282097f-64" value="PV Characterisation and overall hardware design" style="text;html=1;strokeColor=none;fillColor=none;align=center;verticalAlign=middle;whiteSpace=wrap;rounded=1;shadow=0;comic=0;fontFamily=Verdana;fontSize=10;" parent="1" vertex="1">
          <mxGeometry x="485" y="445" width="90" height="75" as="geometry" />
        </mxCell>
        <mxCell id="218ae93e1282097f-65" value="Buck SMPS Characterisation and overall hardware design" style="text;html=1;strokeColor=none;fillColor=none;align=center;verticalAlign=middle;whiteSpace=wrap;rounded=1;shadow=0;comic=0;fontFamily=Verdana;fontSize=10;" parent="1" vertex="1">
          <mxGeometry x="585" y="445" width="90" height="85" as="geometry" />
        </mxCell>
        <mxCell id="218ae93e1282097f-66" value="Bi Directional SMPS Characterization and overall hardware design" style="text;html=1;strokeColor=none;fillColor=none;align=center;verticalAlign=middle;whiteSpace=wrap;rounded=1;shadow=0;comic=0;fontFamily=Verdana;fontSize=10;" parent="1" vertex="1">
          <mxGeometry x="685" y="445" width="90" height="85" as="geometry" />
        </mxCell>
        <mxCell id="218ae93e1282097f-67" value="Modified SMPS code to account for algorithm decisions" style="text;html=1;strokeColor=none;fillColor=none;align=center;verticalAlign=middle;whiteSpace=wrap;rounded=1;shadow=0;comic=0;fontFamily=Verdana;fontSize=10;" parent="1" vertex="1">
          <mxGeometry x="890.5" y="510" width="90" height="70" as="geometry" />
        </mxCell>
        <mxCell id="218ae93e1282097f-68" value="Ilan Iwumbwe" style="text;html=1;strokeColor=none;fillColor=none;align=center;verticalAlign=middle;whiteSpace=wrap;rounded=1;shadow=0;comic=0;fontFamily=Verdana;fontSize=10;" parent="1" vertex="1">
          <mxGeometry x="990.5" y="475" width="90" height="25" as="geometry" />
        </mxCell>
        <mxCell id="218ae93e1282097f-69" value="Justin Lam" style="text;html=1;strokeColor=none;fillColor=none;align=center;verticalAlign=middle;whiteSpace=wrap;rounded=1;shadow=0;comic=0;fontFamily=Verdana;fontSize=10;" parent="1" vertex="1">
          <mxGeometry x="890.5" y="475" width="90" height="25" as="geometry" />
        </mxCell>
        <mxCell id="218ae93e1282097f-70" value="TCP server and client side integration" style="text;html=1;strokeColor=none;fillColor=none;align=center;verticalAlign=middle;whiteSpace=wrap;rounded=1;shadow=0;comic=0;fontFamily=Verdana;fontSize=10;" parent="1" vertex="1">
          <mxGeometry x="990.5" y="510" width="90" height="70" as="geometry" />
        </mxCell>
        <mxCell id="6257edae8c83ed4a-9" value="Hardware&amp;nbsp;" style="whiteSpace=wrap;html=1;rounded=1;shadow=0;comic=0;strokeWidth=2;fontFamily=Verdana;align=center;fontSize=12;fontStyle=1" parent="1" vertex="1">
          <mxGeometry x="526" y="210" width="200" height="50" as="geometry" />
        </mxCell>
        <mxCell id="6257edae8c83ed4a-12" value="Integration" style="whiteSpace=wrap;html=1;rounded=1;shadow=0;comic=0;strokeWidth=2;fontFamily=Verdana;align=center;fontSize=12;fontStyle=1" parent="1" vertex="1">
          <mxGeometry x="887" y="270" width="200" height="50" as="geometry" />
        </mxCell>
        <mxCell id="6257edae8c83ed4a-1" value="Task Assignment" style="whiteSpace=wrap;html=1;rounded=1;shadow=0;comic=0;strokeWidth=2;fontFamily=Verdana;align=center;fontSize=12;fontStyle=1" parent="1" vertex="1">
          <mxGeometry x="887" y="140" width="200" height="50" as="geometry" />
        </mxCell>
        <mxCell id="218ae93e1282097f-2" value="Software" style="whiteSpace=wrap;html=1;rounded=1;shadow=0;comic=0;strokeWidth=2;fontFamily=Verdana;align=center;fontSize=12;fontStyle=1" parent="1" vertex="1">
          <mxGeometry x="1247" y="210" width="200" height="50" as="geometry" />
        </mxCell>
        <mxCell id="XZSYA5knR98AlTomdFbd-1" value="" style="whiteSpace=wrap;html=1;rounded=1;shadow=0;comic=0;strokeWidth=2;fontFamily=Verdana;align=center;fontSize=10;" vertex="1" parent="1">
          <mxGeometry x="1177" y="330" width="340" height="220" as="geometry" />
        </mxCell>
        <mxCell id="XZSYA5knR98AlTomdFbd-5" value="Anson Chin" style="text;html=1;strokeColor=none;fillColor=none;align=center;verticalAlign=middle;whiteSpace=wrap;rounded=1;shadow=0;comic=0;fontFamily=Verdana;fontSize=10;" vertex="1" parent="1">
          <mxGeometry x="1202" y="410" width="90" height="25" as="geometry" />
        </mxCell>
        <mxCell id="XZSYA5knR98AlTomdFbd-6" value="Samuel Khoo" style="text;html=1;strokeColor=none;fillColor=none;align=center;verticalAlign=middle;whiteSpace=wrap;rounded=1;shadow=0;comic=0;fontFamily=Verdana;fontSize=10;" vertex="1" parent="1">
          <mxGeometry x="1302" y="410" width="90" height="25" as="geometry" />
        </mxCell>
        <mxCell id="XZSYA5knR98AlTomdFbd-7" value="Ilan Iwumbwe" style="text;html=1;strokeColor=none;fillColor=none;align=center;verticalAlign=middle;whiteSpace=wrap;rounded=1;shadow=0;comic=0;fontFamily=Verdana;fontSize=10;" vertex="1" parent="1">
          <mxGeometry x="1402" y="410" width="90" height="25" as="geometry" />
        </mxCell>
        <mxCell id="XZSYA5knR98AlTomdFbd-8" value="Optimization Algorithm and Webserver" style="text;html=1;strokeColor=none;fillColor=none;align=center;verticalAlign=middle;whiteSpace=wrap;rounded=1;shadow=0;comic=0;fontFamily=Verdana;fontSize=10;" vertex="1" parent="1">
          <mxGeometry x="1202" y="440" width="90" height="85" as="geometry" />
        </mxCell>
        <mxCell id="XZSYA5knR98AlTomdFbd-9" value="API develoipment and Webserver" style="text;html=1;strokeColor=none;fillColor=none;align=center;verticalAlign=middle;whiteSpace=wrap;rounded=1;shadow=0;comic=0;fontFamily=Verdana;fontSize=10;" vertex="1" parent="1">
          <mxGeometry x="1302" y="445" width="90" height="75" as="geometry" />
        </mxCell>
        <mxCell id="XZSYA5knR98AlTomdFbd-10" value="Machine Learning and Algorithm Flow" style="text;html=1;strokeColor=none;fillColor=none;align=center;verticalAlign=middle;whiteSpace=wrap;rounded=1;shadow=0;comic=0;fontFamily=Verdana;fontSize=10;" vertex="1" parent="1">
          <mxGeometry x="1402" y="450" width="90" height="75" as="geometry" />
        </mxCell>
        <mxCell id="XZSYA5knR98AlTomdFbd-16" value="" style="image;html=1;image=img/lib/clip_art/people/Suit_Man_128x128.png" vertex="1" parent="1">
          <mxGeometry x="902.5" y="415" width="59" height="50" as="geometry" />
        </mxCell>
        <mxCell id="XZSYA5knR98AlTomdFbd-18" value="" style="image;html=1;image=img/lib/clip_art/people/Suit_Man_128x128.png" vertex="1" parent="1">
          <mxGeometry x="500.5" y="351" width="59" height="50" as="geometry" />
        </mxCell>
        <mxCell id="XZSYA5knR98AlTomdFbd-19" value="" style="image;html=1;image=img/lib/clip_art/people/Suit_Man_128x128.png" vertex="1" parent="1">
          <mxGeometry x="596.5" y="351" width="59" height="50" as="geometry" />
        </mxCell>
        <mxCell id="XZSYA5knR98AlTomdFbd-20" value="" style="image;html=1;image=img/lib/clip_art/people/Suit_Man_128x128.png" vertex="1" parent="1">
          <mxGeometry x="690" y="351" width="59" height="50" as="geometry" />
        </mxCell>
        <mxCell id="XZSYA5knR98AlTomdFbd-21" value="" style="image;html=1;image=img/lib/clip_art/people/Suit_Man_128x128.png" vertex="1" parent="1">
          <mxGeometry x="1006" y="415" width="59" height="50" as="geometry" />
        </mxCell>
        <mxCell id="XZSYA5knR98AlTomdFbd-22" value="" style="image;html=1;image=img/lib/clip_art/people/Suit_Man_128x128.png" vertex="1" parent="1">
          <mxGeometry x="1217.5" y="351" width="59" height="50" as="geometry" />
        </mxCell>
        <mxCell id="XZSYA5knR98AlTomdFbd-23" value="" style="image;html=1;image=img/lib/clip_art/people/Suit_Man_128x128.png" vertex="1" parent="1">
          <mxGeometry x="1317.5" y="351" width="59" height="50" as="geometry" />
        </mxCell>
        <mxCell id="XZSYA5knR98AlTomdFbd-24" value="" style="image;html=1;image=img/lib/clip_art/people/Suit_Man_128x128.png" vertex="1" parent="1">
          <mxGeometry x="1417.5" y="351" width="59" height="50" as="geometry" />
        </mxCell>
      </root>
    </mxGraphModel>
  </diagram>
</mxfile>
